<?xml version="1.0" encoding="UTF-8"?>
<svg id="Laag_1" xmlns="http://www.w3.org/2000/svg" version="1.1" viewBox="0 0 456.6 286.8">
  <!-- Generator: Adobe Illustrator 29.1.0, SVG Export Plug-In . SVG Version: 2.1.0 Build 142)  -->
  <defs>
    <style>
      .st0 {
        fill: #fff;
      }

      .st1 {
        fill: none;
        stroke: #ff8200;
        stroke-miterlimit: 10;
        stroke-width: 5px;
      }

      .st2 {
        fill: #ff8200;
      }

      .st3 {
        fill: #707372;
      }
    </style>
  </defs>
  <g>
    <path class="st3" d="M75.2,174v-107h16.8c9.8,0,16.9.6,21.4,1.9,6.4,1.7,11.5,4.9,15.3,9.5,3.8,4.6,5.7,10,5.7,16.3s-.9,7.8-2.6,11.1c-1.7,3.3-4.5,6.4-8.4,9.3,6.5,3.1,11.3,6.9,14.3,11.5,3,4.6,4.5,10,4.5,16.3s-1.6,11.5-4.7,16.4-7.1,8.6-12,11.1c-4.9,2.4-11.7,3.7-20.3,3.7h-30ZM95.5,86.4v22.6h4.5c5,0,8.7-1,11.1-3.1,2.4-2.1,3.6-4.9,3.6-8.5s-1.1-6-3.4-8c-2.3-2-5.8-2.9-10.4-2.9h-5.4ZM95.5,127.2v27.4h5.1c8.5,0,14.2-1.1,17.1-3.2s4.4-5.2,4.4-9.3-1.7-8.2-5.2-10.9c-3.5-2.7-9.2-4-17.2-4h-4.2Z"/>
    <path class="st2" d="M253.4,158.4l18.6,24.1h-24.1l-9.5-12.2c-7.8,4.3-16.5,6.4-26.2,6.4-16.1,0-29.4-5.5-40.1-16.6-10.6-11.1-16-24.3-16-39.6s2.5-19.6,7.4-28.2c5-8.6,11.8-15.4,20.4-20.4,8.7-5,18-7.6,27.9-7.6,15.2,0,28.2,5.5,39.1,16.4,10.9,11,16.3,24.3,16.3,40.1.3,14.5-4.4,27-13.8,37.6ZM240.7,141.9c4.3-6.4,6.5-13.5,6.5-21.2s-3.4-18.7-10.3-25.8c-6.8-7.1-15.1-10.6-24.8-10.6s-18.4,3.4-25.1,10.3-10.1,15.6-10.1,26.3,4.3,21.2,12.8,28.1c6.7,5.4,14.2,8.1,22.7,8.1s9.4-.9,13.7-2.8l-19.2-24.7h24.3l9.5,12.3Z"/>
    <path class="st3" d="M319.4,67h20.7l41.2,107h-21.2l-8.4-22h-43.7l-8.7,22h-21.2l41.3-107ZM329.8,95.4l-14.3,36.7h28.6l-14.3-36.7Z"/>
  </g>
  <line class="st1" x1="75.9" y1="219.8" x2="225.6" y2="219.8"/>
  <g>
    <path class="st0" d="M248.9,218.3h-8.3l-1.4,4h-4.4l7.5-21h4.9l7.5,21h-4.4l-1.4-4ZM247.8,214.9l-3-8.8-3,8.8h6.1Z"/>
    <path class="st0" d="M257,206.2c.9-1.6,2.2-2.9,3.8-3.8,1.6-.9,3.4-1.4,5.4-1.4s4.4.6,6.2,1.8c1.8,1.2,3,2.9,3.7,5h-4.8c-.5-1-1.2-1.8-2-2.2s-1.9-.8-3-.8-2.3.3-3.3.9c-1,.6-1.7,1.4-2.2,2.4-.5,1-.8,2.3-.8,3.7s.3,2.6.8,3.6c.5,1.1,1.3,1.9,2.2,2.4,1,.6,2,.9,3.3.9s2.1-.3,3-.8,1.5-1.3,2-2.3h4.8c-.7,2.1-1.9,3.8-3.7,5-1.8,1.2-3.8,1.8-6.2,1.8s-3.8-.5-5.4-1.4c-1.6-.9-2.9-2.2-3.8-3.8-.9-1.6-1.4-3.5-1.4-5.5s.5-3.9,1.4-5.5Z"/>
    <path class="st0" d="M291.4,218.3h-8.3l-1.4,4h-4.4l7.5-21h4.9l7.5,21h-4.4l-1.4-4ZM290.3,214.9l-3-8.8-3,8.8h6.1Z"/>
    <path class="st0" d="M313,202.6c1.7.9,3,2.1,3.9,3.7.9,1.6,1.4,3.4,1.4,5.5s-.5,3.9-1.4,5.5c-.9,1.6-2.2,2.8-3.9,3.6-1.7.9-3.6,1.3-5.8,1.3h-7.3v-20.9h7.3c2.2,0,4.1.4,5.8,1.3ZM312.1,216.9c1.2-1.2,1.8-2.9,1.8-5.1s-.6-3.9-1.8-5.1c-1.2-1.2-2.9-1.8-5.1-1.8h-3v13.8h3c2.2,0,3.9-.6,5.1-1.8Z"/>
    <path class="st0" d="M325.9,204.7v5.2h7.1v3.3h-7.1v5.5h8v3.4h-12.1v-21h12.1v3.4h-8Z"/>
    <path class="st0" d="M360.7,201.3v20.9h-4.2v-13.6l-5.6,13.6h-3.2l-5.6-13.6v13.6h-4.2v-20.9h4.8l6.7,15.6,6.7-15.6h4.7Z"/>
    <path class="st0" d="M381.5,201.3l-7.1,13.7v7.3h-4.2v-7.3l-7.1-13.7h4.7l4.5,9.6,4.5-9.6h4.7Z"/>
  </g>
</svg>