<?xml version="1.0" encoding="utf-8"?>
<!-- Generator: Adobe Illustrator 27.5.0, SVG Export Plug-In . SVG Version: 6.00 Build 0)  -->
<svg version="1.1" id="Layer_1" xmlns="http://www.w3.org/2000/svg" xmlns:xlink="http://www.w3.org/1999/xlink" x="0px" y="0px"
	 viewBox="0 0 300 300" style="enable-background:new 0 0 300 300;" xml:space="preserve">
<style type="text/css">
	path {
		fill:#FFFFFF;
	}
	.st0{fill:#00C0B5;}
</style>
<g>
	<g>
		<path d="M108.3,240.7c-14.6,0-29.3-0.1-43.9,0c-2.7,0-4.4-1.4-6-3.2c-0.7-0.8-1.2-1.8-1.1-2.9c0-0.7-0.1-1.3-0.1-2
			c0-14.8,0-29.6,0-44.4c0-2.7,0.7-4.8,3-6.3c0.7-0.5,1.5-0.8,2.3-1c0.9-0.2,1.9-0.3,2.8-0.3c28.9,0,57.8,0,86.7,0
			c2.2,0,4.1,0.7,5.6,2c1.6,1.4,2.4,3.5,2.4,5.8c0,6.4,0,12.7,0,19.1c0,8.3,0,16.5,0,24.8c0,3.7-1.9,6.1-4.9,7.7
			c-0.7,0.4-1.6,0.5-2.5,0.5C137.9,240.7,123.1,240.7,108.3,240.7C108.3,240.7,108.3,240.7,108.3,240.7z M68.6,188.2
			c0,0.2,0,0.8,0,1c0.2-0.1,1.8,0.1,2,0c1.8,0.1,2.1,0,3.9,0c3.7,0,7.4,0,11.1,0l-0.1-1.2 M108.5,223.1c4.4,0,8.6,0,13.2,0
			c-0.4-0.5-0.6-1-0.8-1.1c-0.4-0.1-0.9,0-1.3,0c-3.6-0.1-7.1-0.2-10.7-0.3c-0.1,0-0.3,0.1-0.4,0.1
			C108.5,222.3,108.5,222.7,108.5,223.1z M115.5,209.6c0.4,0.6,0.4,0.8,0.5,0.8c1.7,0.3,3.3,1.3,5,0.2c0.3-0.2,0.8,0,1.2,0
			c1.5,0.1,3.1,0.3,4.6,0.4c0.5-1.4,0-2-1-1.6c-0.8,0.3-1.4,0.4-2.2,0c-0.4-0.2-1,0-1.5,0c-1.1,0.1-2.1,0.3-3.2,0.3
			C118,209.7,116.9,209.6,115.5,209.6z M127.7,215.5c-3.9,0-7.4,0-11,0c-0.2,0-0.3,0.5-0.7,1c3.8,0,7.4,0,10.9,0
			C127.2,216.5,127.4,216,127.7,215.5z M106.7,200.6c0,0.2,0,0.4,0,0.5c3.6,0.2,7.1,0.3,10.7,0.4c0.8,0,1.6-0.4,2.4-0.6
			c-0.1-0.4-0.2-0.6-0.2-0.6C115.2,200.4,111,200.5,106.7,200.6z M108.2,218.9c0.6,0.4,1,0.8,1.4,0.8c3.4,0.2,6.8,0.3,10.2,0.4
			c0.3,0,0.6-0.4,0.8-0.7c-0.3-0.2-0.5-0.5-0.8-0.5c-1.6,0-3.2,0-4.8,0C112.8,218.9,110.6,218.9,108.2,218.9z M99.2,197.3
			c-0.1,0.7,0.3,1.2,1,1.2c2.3,0,4.7,0,7,0c0.2,0,0.4-0.5,0.8-1.2C104.8,197.3,102.1,197.3,99.2,197.3z M86.6,206.7
			c-0.3,0.7,0,1.1,0.6,1.1c2.3,0,4.7,0.1,7,0.1c0.6,0,0.9-0.3,0.7-1.1C92.2,206.7,89.4,206.7,86.6,206.7z M86.5,222
			c-0.1,0.2-0.2,0.4-0.3,0.6c0.3,0.2,0.7,0.7,1,0.7c2.2,0.1,4.4,0,6.5,0c0.3,0,0.6-0.4,0.9-0.6c-0.3-0.2-0.7-0.6-1-0.6
			C91.3,221.9,88.9,222,86.5,222z M108.5,207.7c5.2,0.3,7.8,0,9.3-1.1c-3.3,0-6.2,0-9.3,0C108.5,206.8,108.5,207.2,108.5,207.7z
			 M98.9,212.8c0.1,0.3,0.3,0.5,0.4,0.8c1.9,0,3.8,0.1,5.7,0c1.8-0.1,3.6,0.3,5.3-0.4c-3.5-0.4-7.1-0.5-10.6-0.6
			C99.5,212.5,99.2,212.7,98.9,212.8z M107.4,223.2c-0.2-0.6-0.3-1.1-0.3-1.1c-2.5,0-5,0-7.5,0c-0.2,0.8,0.1,1.1,0.8,1.1
			C102.7,223.2,104.9,223.2,107.4,223.2z M99,215.6c0.3,0.5,0.4,0.8,0.5,0.9c1,0.4,6.4,0.1,7.5-0.4c-0.1-0.2-0.2-0.5-0.3-0.5
			C104.3,215.6,101.8,215.6,99,215.6z M99.3,194.2c0.4,1.1,0.4,1.2,0.8,1.2c1.9,0,3.9,0,5.8,0c0-0.6,0-1,0-1.2
			C103.7,194.2,101.6,194.2,99.3,194.2z M124.6,197.6c-2.2-0.2-4.2-0.4-6.1-0.5c-0.3,0-0.6,0.4-1.1,0.8c2.4,1.1,4.6,0.6,6.8,0.5
			C124.4,198.4,124.5,197.9,124.6,197.6z M106.8,219.2c-2.4-0.2-4.8-0.5-7.4-0.2c0.8,1.4,1.8,1.1,2.7,1
			C103.7,219.9,105.4,220.5,106.8,219.2z M108.3,215.7c0.5,0.6,0.8,1.2,1.1,1.2c1.4,0.1,2.8,0.2,4.1,0c0.5,0,1.6-0.2,1.1-1.2
			C112.6,215.7,110.6,215.7,108.3,215.7z M109.1,197.1c0.3,0.6,0.4,1.3,0.6,1.3c1.9,0.1,3.8,0.5,6.2-0.6
			C113.5,197.6,111.5,197.4,109.1,197.1z M80.4,207.6c3.7,0.5,4.1,0.4,4.4-1.3c-1.4,0-2.9,0-4.4,0C80.4,206.8,80.4,207.2,80.4,207.6
			z M131.9,218.9c0.3,0.6,0.4,1.1,0.6,1.1c1.7,0.1,3.5,0.1,5.2,0c0.1,0,0.4-0.4,0.4-0.6c0-0.2-0.3-0.5-0.5-0.5
			C135.8,218.9,134,218.9,131.9,218.9z M105,200.4c-1.4,0-2.9,0-4.3,0c-0.3,0-0.7,0.1-1.4,0.2c0.5,0.5,0.7,0.8,1,0.9
			C102.5,201.9,104.3,201.6,105,200.4z M128.8,222.2c0.3,0.5,0.5,1,0.6,1c1.5,0.1,3.1,0.1,4.6,0c0.7-0.1,0.6-0.6,0.3-1
			C132.5,222.2,130.8,222.2,128.8,222.2z M95.3,197.7c-2.2-0.6-7.1-0.5-8.4,0.1C88.4,198.4,93.1,198.5,95.3,197.7z M127.5,221.9
			c-1.7,0.1-3.3,0.2-4.9,0.2c0.4,1.3,0.6,1.3,4.9,0.9C127.5,222.6,127.5,222.2,127.5,221.9z M104.3,203.6c-1.7-0.1-3.3-0.3-5-0.4
			c0,0.5,0,0.9,0,1.3C103.5,204.8,103.5,204.8,104.3,203.6z M118,194.5c-2.6-0.4-5.5-0.3-6.9,0.2C113.8,195.7,116.8,195.7,118,194.5
			z M86.8,200.8c1.6,0.7,6.9,0.7,8.1-0.1C93.2,200.2,88.3,200.3,86.8,200.8z M99.3,209.8c2.2,1.1,7.3,1,8.5,0
			C105,209.8,102.4,209.8,99.3,209.8z M94.9,204.1c-1.5-0.8-6.4-0.8-8-0.2C88.1,204.5,92.3,204.6,94.9,204.1z M86.9,194.5
			c1.7,0.9,6.5,0.8,8.1-0.1C92,194,89.5,194.4,86.9,194.5z M134.3,216.5c-0.8-1-2.2-1.3-4.2-1c-0.3,0-0.6,0.4-0.9,0.7
			c0.1,0.1,0.1,0.2,0.2,0.3C130.8,216.5,132.4,216.5,134.3,216.5z M94.6,219.2c-2.6-0.7-5.2-0.1-8.2-0.1C88.2,220,93,220,94.6,219.2
			z M85.3,195c0-0.2,0-0.5,0-0.7c-1.3,0-2.6,0-3.9,0c-0.3,0-0.7,0.2-1,0.2c0.3,0.3,0.6,1,0.9,0.9C82.6,195.4,83.9,195.2,85.3,195z
			 M80.3,222.1c0.8,2,2.5,0.8,3.8,1.1c0.7,0.1,1.2-0.2,0.9-1.1C83.4,222.1,81.9,222.1,80.3,222.1z M80.7,215.5
			c-0.1,1.6,1.1,1.1,1.8,1.1c2,0.1,2.1,0,2.4-1.1C83.5,215.5,82.1,215.5,80.7,215.5z M104.6,207c-1.8-0.3-3.6-0.7-5.4,0.1
			C101.1,207.6,102.8,207.5,104.6,207z M80.5,203.1c0.2,0.6,0.3,1.2,0.5,1.2c1.3,0.1,2.7,0.5,3.9-0.6
			C83.5,203.5,82.1,203.3,80.5,203.1z M112,213c0,0.1,0,0.3,0,0.4c1.1,0.2,2.2,0.5,3.3,0.6c0.7,0.1,1-0.3,0.7-1
			C114.6,213,113.3,213,112,213z M126,219c2.2,1,4.2,0.9,5.1,0C129.3,219,127.7,219,126,219z M75.2,203.1c-0.2,0.8-0.3,1.4,0.6,1.5
			c0.9,0.1,1.5-0.1,1.5-1.3C76.6,203.3,75.9,203.2,75.2,203.1z M124,207c-1.6-0.5-3.1-0.7-4.6,0.1C120.9,207.7,122.5,207.6,124,207z
			 M80.4,197.5c0,0.2,0,0.4,0,0.6c1.5-0.1,3,0.5,4.5-0.6C83.4,197.5,81.9,197.5,80.4,197.5z M79.9,200.5c1.7,1,3.5,1.1,5.3,0.2
			C83.3,200.2,81.7,200.4,79.9,200.5z M70.3,216.8c0.6,0,1.2,0,1.8,0c0-0.5,0-0.9,0-1.4c-0.7,0-1.2,0.1-1.8,0.1
			C70.2,216.1,70.2,216.4,70.3,216.8z M85.2,219.2c-2.7-0.6-3.6-0.5-4.5,0.3C82.7,219.9,83.5,219.9,85.2,219.2z M84.9,209.9
			c-1.4-0.2-2.8-0.7-4.7,0.2C82.1,210.7,83.5,210.6,84.9,209.9z M80.7,212.9c0,0.2,0,0.3,0,0.5c1.3,0.3,2.5,0.5,3.8-0.5
			C83.2,212.9,81.9,212.9,80.7,212.9z M77.2,201c-0.3-0.3-0.4-0.5-0.6-0.5c-0.2,0-0.5,0.2-0.7,0.3c0.1,0.1,0.2,0.4,0.3,0.4
			C76.5,201.2,76.7,201.1,77.2,201z"/>
		<path d="M253.8,180.8c10.7,0,21.4,0,32.1,0c1.7,0,3.4,0,5.1,0.7c3.2,1.3,4.3,3.9,4.3,6.8c0.2,6.5,0,13,0,19.5
			c0,8.3-0.1,16.5,0.1,24.8c0.1,4.2-3.5,8-7.8,8c-19.2-0.1-38.5-0.1-57.7,0c-3.3,0-6.6,0-9.9,0c-3.1,0-5.4-1.3-6.9-4
			c-0.2-0.4-0.4-0.9-0.5-1.4c-0.1-1-0.2-2-0.2-3.1c0-14.1,0-28.1,0-42.2c0-0.8,0.1-1.6,0-2.4c-0.4-3.4,3-7,6.6-6.9
			c1.8,0,3.7,0.1,5.5,0.1C234.2,180.9,244,180.9,253.8,180.8C253.8,180.9,253.8,180.9,253.8,180.8z M222.2,190.8c0,0.2,0,0.4,0,0.5
			c0.9,0.2,1.9,0.5,2.8,0.6c0.9,0.1,1.9-0.1,2.8-0.1c6.2,0,12.4,0,18.7,0c3.3,0,6.6,0,9.9,0c1,0,1.6-0.2,1.1-1.5
			c-11.5,0-23.1,0-34.6,0C222.7,190.4,222.4,190.7,222.2,190.8z M231.1,193.9c0.5,0.6,0.7,1,1,1c0.9,0.1,1.7,0.1,2.6,0.1
			c7.3,0,14.6,0,21.9,0c0.8,0,1.6,0,2.4,0c0.7,0,1.1-0.3,1.1-1.2C250.6,193.9,241,193.9,231.1,193.9z M263.4,211.7
			c-1.4,0-2.1,0-2.8,0c-6.2,0-12.4,0-18.7,0.1c-0.7,0-2-0.5-2,0.5c-0.1,1.4,1.3,0.8,2,0.8c6.4,0.1,12.7,0,19.1,0
			c0.4,0,0.9,0.1,1.3-0.1C262.6,212.9,262.8,212.5,263.4,211.7z M252.8,208.6c-0.7-0.1-1-0.2-1.3-0.2c-6.7,0-13.4-0.1-20.1-0.1
			c-0.3,0-0.6,0-0.9,0.1c-0.2,0.1-0.4,0.4-0.5,0.6c0,0.2,0.2,0.6,0.4,0.6c0.4,0.1,0.9,0.1,1.3,0.1c6.3,0,12.5,0,18.8,0
			c0.4,0,0.9,0,1.3-0.1C252.2,209.5,252.4,209.1,252.8,208.6z M233.7,204.2c-1.3-0.2-1.9-0.2-1.8,0.8c0,0.3,0.4,0.5,0.6,0.8
			C232.8,205.4,233.2,204.9,233.7,204.2z"/>
		<path d="M80.8,153c-12.6,0-25.2,0-37.8,0c-4.1,0-7.4-3.1-7.4-7.2c0-12,0.1-24,0-36c0-2.9,1.4-4.7,3.3-6.2c1.3-1.1,3.1-1.1,4.8-1.1
			c8.9,0,17.9,0,26.8,0c16.2,0,32.4,0,48.5-0.1c2.3,0,4.4,0.6,6,2c1.7,1.4,2.7,3.3,2.7,5.7c-0.1,5.8-0.1,11.6-0.1,17.3
			c0,5.7,0,11.4,0,17.1c0,5-3.6,8.5-8.5,8.4C106.3,152.9,93.6,153,80.8,153C80.8,153,80.8,153,80.8,153z M103.9,134.2
			c-9.1,0-17.9-0.1-26.6,0c-0.3,1.4,0.1,2,1.2,2.1c0.5,0,1,0,1.5,0c7.2,0,14.5,0,21.7,0c0.6,0,1.3-0.1,2.1-0.1
			C103.8,135.6,103.9,135,103.9,134.2z M45.8,140.5c0.9,0,1.6,0.1,2.3,0.1c2.3,0,4.7,0,7,0c5.3,0,10.5,0,15.8,0
			c1.8,0,1.9-0.2,1.4-2.1c-8.5,0-17.1,0-25.7,0C46.3,139.1,46.1,139.6,45.8,140.5z M71.4,111.4c-0.4-0.1-0.5-0.2-0.6-0.2
			c-7.7,0-15.4,0-23.1,0c-1.4,0-1.4,0.1-1.5,1.9c8.4,0,16.8,0,25.2,0C71.4,112.5,71.4,112,71.4,111.4z M74.2,126.1
			c0.2-1.8,0.2-1.8-1.1-1.8c-0.9,0-1.8,0-2.6,0c-7.4,0-14.9,0-22.3,0c-1.8,0-1.8,0-1.6,1.8C55.8,126.1,65,126.1,74.2,126.1z
			 M115.1,126.1c0.4-1.7-0.4-1.8-1.6-1.8c-6.9,0-13.9,0-20.8,0c-0.2,0-0.4,0.1-0.6,0.2c0,0.3-0.1,0.6-0.1,0.9c0,0.3,0.1,0.5,0.2,0.8
			C99.9,126.1,107.5,126.1,115.1,126.1z"/>
		<path d="M264.9,157.3c-0.8,6.3-0.8,6.3-5.6,7.4c0,4.9,0,9.9,0,14.9c-0.7,0.1-1.2,0.1-1.7,0.1c-0.5,0-1,0-1.7,0c0-5,0-10.1,0-15.3
			c-1.7,0-3.1-0.3-4.5,0.8c-0.5,0.4-1.5,0.4-2.3,0.4c-18.5,0-37.1,0-55.6,0c-1.4,0-2.9,0.3-4.3,0.4c-1.8,0.2-2.4,1.4-2.6,3
			c0,0.3-0.1,0.6-0.1,0.9c0,2.8,0,5.6,0,8.3c0,0.9,0.1,1.6,1.1,2.2c2.7,1.6,3.1,5.3,0.8,7.5c-0.6,0.6-0.9,1.1-0.9,1.8
			c0,3.9,0,7.8-0.1,11.6c0,1.4,0.3,2.5,1.4,3.5c2.4,2.4,2.1,6.1-0.3,8.2c-2,1.8-5.3,2-7.3,0.3c-0.7-0.6-1.4-0.6-2.2-0.6
			c-5.3,0-10.5,0-15.8,0c-0.6,0-1.3,0-2.1,0c0-1.8,0-3.4,0-5.2c5.9,0,11.7,0,17.3,0c1-1.2,1.6-2.3,2.6-3.2c1.2-1,1.6-2,1.5-3.5
			c-0.1-3.4,0-6.9,0.1-10.3c0-1.1-0.2-1.9-1-2.7c-2.8-2.8-2.5-5.3,0.8-7.7c0.9-0.7,0.9-1.6,0.9-2.5c0-7.8,0-15.5,0-23.3
			c0-2.4-0.1-4.9-0.2-7.3c-5.4-0.6-7.3-3.6-8-7.1c-0.6-3.4,1.3-7.2,5.6-8.8c0-8.7,0-17.5,0-26.3c-2.2-0.4-4.2-1.2-6.2-2.5
			c-2-1.4-3.2-3.4-4.4-5.5c-1.9-3.5-1.7-7.1-0.3-10.6c1.1-2.8,3.2-5.1,5.8-6.5c4.6-2.6,9.5-2.2,13.9,0.4c3.9,2.3,6,6,6.1,10.7
			c0.1,3.3-0.9,6.1-2.7,8.6c-1.2,1.8-3,2.9-4.9,3.8c-1.2,0.5-2.5,1-3.8,1.5c0,8.8,0,17.5,0,26c1.6,0.9,3,1.6,4.3,2.6
			c3.4,2.7,3,9.8-1,11.7c-0.9,0.4-1.2,1.3-1.2,2.4c0.1,3.6,0.1,7.2,0.2,10.7c0,2.2,1.4,3.8,3.6,4c0.9,0.1,1.8,0.1,2.6,0.1
			c14.4,0,28.9,0.1,43.3,0.1c3.9,0,7.8,0,11.6,0c0.6,0,1.3-0.1,1.9-0.1c0-1.8,0-3.4,0-5.1c-0.8,0-1.5,0-2.2,0
			c-4.4,0-8.8,0.1-13.2,0.1c-2.8,0-4.2-1.5-4.2-4.3c0-10.4,0-20.8,0-31.2c0-0.6,0-1.2,0.1-1.8c0.3-2,1.3-2.9,3.3-3.1
			c0.6-0.1,1.2,0,1.8,0c14.9,0,29.9,0,44.8,0c0.4,0,0.7,0,1.1,0c2.4,0.2,3.6,1.4,3.9,3.8c0.1,0.4,0,0.9,0,1.3c0,10,0,20.1-0.1,30.1
			c0,0.9-0.1,1.9-0.4,2.8c-0.7,1.8-2.1,2.6-4.2,2.5c-4.5-0.1-8.9,0-13.4,0C266.3,157.3,265.6,157.3,264.9,157.3z M235.2,122.7
			c-0.1,0.7-0.2,1.3-0.2,1.8c0,7.8,0,15.6,0,23.5c0,1.9,0.1,2,2.2,2c13.5,0,27.1,0,40.6,0c2.3,0,2.3-0.1,2.3-2.3
			c0-7.6,0-15.2,0-22.8c0-0.7-0.1-1.4-0.1-2.2C264.9,122.7,250.1,122.7,235.2,122.7z M183.2,135.4c-2.4,0-3.8,1.2-3.8,3.4
			c0,2.1,1.4,3.6,3.4,3.6c2.6,0,4.1-1.2,4.1-3.3C186.9,136.7,185.6,135.4,183.2,135.4z M257.1,160.1c2,0,3.7-1.4,3.7-3.3
			c0-1.7-1.3-2.9-3-2.9c-2.1,0-3.3,1.1-3.3,3.3C254.5,159.8,258.1,160.1,257.1,160.1z M187.8,208.9c0-1.7-1.5-3.2-3.1-3.1
			c-1.1,0-2.6,1.7-2.6,3c0,1.4,1.5,3.1,2.6,3C186.4,211.6,187.8,210.4,187.8,208.9z M185,182c-1.7,0-2.5,0.8-2.4,2.6
			c0,1.4,0.9,2.2,2.4,2.2c1.5,0,2.5-0.9,2.5-2.4C187.5,182.8,186.6,182,185,182z M185.1,164c1.7,0.3,1.7,0.3,1.4-1.2
			C186,163.2,185.7,163.5,185.1,164z"/>
		<path d="M89.5,101.5c-1.5,0-2.6,0-3.8,0c-0.1-0.5-0.2-1-0.2-1.5c0.1-1.2-0.2-1.9-1.3-2.6c-2-1.2-2.2-5.9,0.5-7.8
			c1.1-0.8,1.2-1.6,1.2-2.7c0-7,0-13.9,0-20.9c0-0.8-0.1-1.5-0.2-2.4c1.1,0,2.2,0,3.6,0c0,1.9,0,3.8,0,5.7c0,2.1,0,4.2,0,6.4
			c0,2.1,1.6,3.8,3.7,4c0.7,0.1,1.3,0.1,2,0.1c17.1,0,34.3,0,51.4,0c4.4,0,7.4,2.4,7.5,7.1c0.1,2.6,0,5.3,0,7.9
			c0,27.5,0,54.9,0,82.4c0,0.9,0,1.7,0,2.7c-1.1,0-1.9,0-3.1,0c0-0.9,0-1.7,0-2.6c0-14.2,0-28.4,0-42.6c0-0.8,0-1.7-0.3-2.4
			c-0.9-1.8-2.3-2.9-4.4-2.9c-4.1,0-8.2,0-12.3,0c-0.8,0-1,0.5-1.5,1c-0.6,0.7-2,0.7-3.3,1c0-2.4,0-4.5,0-6.7c1.3,0,2.6-0.5,3.6,1
			c0.2,0.3,0.9,0.4,1.4,0.4c4.2,0,8.3,0,12.5,0.1c2,0.1,4.3-2.2,4.3-4.3c-0.1-11.7,0-23.4,0-35.1c0-2.2-1.6-3.6-3.9-3.7
			c-4.6,0-9.2,0-13.8,0c-12.8,0-25.6,0-38.4,0c-1.5,0-3.1,0-4.3,1.2c-0.2,0.2-0.6,0.5-0.6,0.8c-0.2,0.9-0.1,1.9-0.3,2.8
			c-0.2,1.2,0.6,1.6,1.3,2.3c2.4,2,2.2,5.4,0.7,6.9C90,97.9,88.7,99.2,89.5,101.5z M87.8,91.3c-0.7,0.2-1.4,0.3-2,0.6
			c-1,0.6-0.9,1.7-0.6,2.6c0.3,1.1,1.3,1.4,2.4,1.4c1.8-0.1,2.7-0.9,2.7-2.6C90.3,91.6,90,91.4,87.8,91.3z"/>
		<path d="M30.4,204.3c4,0,7.9,0,11.9,0c0.9,0,1.7-0.1,2.3-0.9c0.9-1.3,2.1-2,3.7-1.7c0.3,0.1,0.7,0,1.1,0c3.7,0,5.9,3.2,4.5,6.7
			c-0.9,2.3-3.3,3.9-5.7,3.8c-1.3,0-2.4-0.6-3.2-1.6c-0.7-0.9-1.5-1.1-2.6-1.1c-8.1,0.1-16.1,0-24.2,0c-1.9,0-3.5-0.5-5.1-1.4
			c-3.4-1.9-5.9-4.6-6.6-8.6c-0.1-0.8-0.2-1.6-0.2-2.4c0-2.9,0-5.9,0.1-8.8c0-1.3-0.3-2.4-1.4-3.3c-1.1-0.9-1.9-1.9-1.8-3.5
			c0.1-1.8,0.8-3.2,2.1-4.3c1.2-1,2.6-1.1,4.3-0.9c1.8,0.2,2.9,1.1,3.7,2.3c0.6,0.9,0.9,2.4,0.7,3.5c-0.2,1.2-0.9,2.4-1.7,3.4
			c-0.5,0.7-0.9,1.2-0.9,2.1c0,3.3,0,6.6,0.1,9.9c0.1,3.4,3.6,6.6,7,6.7C22.5,204.3,26.5,204.3,30.4,204.3
			C30.4,204.3,30.4,204.3,30.4,204.3z M48.6,209.2c2,0.1,2.9-0.6,3-2.3c0-1.3-1.4-2.9-2.6-2.9c-1.4-0.1-2.5,1-2.6,2.5
			C46.3,208.4,46.9,209.1,48.6,209.2z M8.7,183.8c2,0,3-0.8,2.9-2.3c-0.1-1.5-0.9-2.1-2.7-2c-1.9,0-2.9,0.9-2.8,2.4
			C6.2,183.1,7.1,183.8,8.7,183.8z"/>
		<path d="M89.3,179.6c-1.2,0.1-2.2,0.1-3.4,0.2c0-3.9,0-7.8,0-11.7c0-0.8,0-1.6,0-2.4c0-0.9-0.3-1.4-1.1-1.9
			c-3.3-2.4-3.6-6.4,0.2-9.2c2.5-1.9,7.1,0.6,7.5,3.8c0.2,2.1-0.3,4-2,5.2c-1,0.7-1.1,1.4-1.1,2.3c0,4.2,0,8.5,0,12.7
			C89.4,178.8,89.4,179.1,89.3,179.6z M87.7,161.7c1.9,0,2.5-0.5,2.5-2.4c0-1.6-1-2.8-2.5-2.9c-1.1-0.1-2.8,1.6-2.8,2.8
			C85,160.7,86.2,161.7,87.7,161.7z"/>
		<path class="st0" d="M108.5,223.1c0-0.4,0-0.8,0-1.2c0.2-0.1,0.3-0.1,0.4-0.1c3.6,0.1,7.1,0.2,10.7,0.3c0.4,0,0.9-0.1,1.3,0
			c0.3,0.1,0.4,0.5,0.8,1.1C117.1,223.1,112.9,223.1,108.5,223.1z"/>
		<path class="st0" d="M115.5,209.6c1.4,0.1,2.4,0.2,3.4,0.1c1.1,0,2.1-0.2,3.2-0.3c0.5,0,1.1-0.2,1.5,0c0.8,0.4,1.4,0.3,2.2,0
			c1-0.4,1.5,0.2,1,1.6c-1.5-0.1-3-0.3-4.6-0.4c-0.4,0-0.9-0.2-1.2,0c-1.7,1.1-3.4,0.1-5-0.2C116,210.4,115.9,210.2,115.5,209.6z"/>
		<path class="st0" d="M127.7,215.5c-0.4,0.5-0.5,1-0.7,1c-3.5,0-7.1,0-10.9,0c0.3-0.5,0.5-1,0.7-1
			C120.3,215.5,123.9,215.5,127.7,215.5z"/>
		<path class="st0" d="M106.7,200.6c4.3-0.1,8.5-0.2,12.8-0.3c0,0,0.1,0.2,0.2,0.6c-0.8,0.2-1.6,0.6-2.4,0.6
			c-3.6-0.1-7.1-0.3-10.7-0.4C106.7,201,106.7,200.8,106.7,200.6z"/>
		<path class="st0" d="M108.2,218.9c2.5,0,4.6,0,6.8,0c1.6,0,3.2,0,4.8,0c0.3,0,0.5,0.3,0.8,0.5c-0.3,0.2-0.6,0.7-0.8,0.7
			c-3.4-0.1-6.8-0.2-10.2-0.4C109.1,219.7,108.7,219.3,108.2,218.9z"/>
		<path class="st0" d="M99.2,197.3c2.9,0,5.6,0,8.7,0c-0.4,0.6-0.6,1.2-0.8,1.2c-2.3,0.1-4.7,0-7,0
			C99.5,198.5,99.2,198.1,99.2,197.3z"/>
		<path class="st0" d="M86.6,206.7c2.8,0,5.6,0,8.3,0c0.3,0.8,0,1.1-0.7,1.1c-2.3,0-4.7,0-7-0.1C86.6,207.8,86.3,207.4,86.6,206.7z"
			/>
		<path class="st0" d="M86.5,222c2.4,0,4.8,0,7.2,0c0.3,0,0.7,0.4,1,0.6c-0.3,0.2-0.6,0.6-0.9,0.6c-2.2,0.1-4.4,0.1-6.5,0
			c-0.3,0-0.7-0.4-1-0.7C86.3,222.4,86.4,222.2,86.5,222z"/>
		<path class="st0" d="M108.5,207.7c0-0.5,0-0.9,0-1.1c3.1,0,6,0,9.3,0C116.3,207.7,113.7,208,108.5,207.7z"/>
		<path class="st0" d="M98.9,212.8c0.3-0.1,0.6-0.3,0.8-0.3c3.5,0.1,7,0.2,10.6,0.6c-1.7,0.7-3.6,0.4-5.3,0.4c-1.9,0.1-3.8,0-5.7,0
			C99.2,213.3,99,213.1,98.9,212.8z"/>
		<path class="st0" d="M107.4,223.2c-2.5,0-4.8,0-7,0c-0.7,0-1.1-0.4-0.8-1.1c2.5,0,5,0,7.5,0C107.2,222.2,107.3,222.6,107.4,223.2z
			"/>
		<path class="st0" d="M99,215.6c2.8,0,5.3,0,7.8,0c0.1,0,0.2,0.3,0.3,0.5c-1.1,0.4-6.5,0.7-7.5,0.4C99.3,216.5,99.3,216.1,99,215.6
			z"/>
		<path class="st0" d="M99.3,194.2c2.3,0,4.4,0,6.6,0c0,0.3,0,0.6,0,1.2c-1.9,0-3.9,0-5.8,0C99.7,195.4,99.7,195.3,99.3,194.2z"/>
		<path class="st0" d="M124.6,197.6c-0.1,0.4-0.2,0.8-0.3,0.8c-2.2,0.1-4.4,0.6-6.8-0.5c0.5-0.4,0.8-0.8,1.1-0.8
			C120.5,197.2,122.4,197.4,124.6,197.6z"/>
		<path class="st0" d="M106.8,219.2c-1.4,1.3-3.2,0.7-4.8,0.8c-0.8,0.1-1.9,0.4-2.7-1C102,218.8,104.4,219,106.8,219.2z"/>
		<path class="st0" d="M108.3,215.7c2.3,0,4.3,0,6.4,0c0.4,1-0.6,1.2-1.1,1.2c-1.4,0.1-2.8,0.1-4.1,0
			C109.1,216.8,108.8,216.2,108.3,215.7z"/>
		<path class="st0" d="M109.1,197.1c2.4,0.2,4.3,0.4,6.8,0.7c-2.3,1.1-4.3,0.7-6.2,0.6C109.6,198.4,109.4,197.7,109.1,197.1z"/>
		<path class="st0" d="M80.4,207.6c0-0.4,0-0.8,0-1.3c1.5,0,2.9,0,4.4,0C84.5,208,84.1,208.1,80.4,207.6z"/>
		<path class="st0" d="M131.9,218.9c2.1,0,3.8,0,5.6,0c0.2,0,0.5,0.3,0.5,0.5c0,0.2-0.2,0.6-0.4,0.6c-1.7,0-3.5,0-5.2,0
			C132.3,220,132.2,219.5,131.9,218.9z"/>
		<path class="st0" d="M105,200.4c-0.7,1.2-2.4,1.4-4.7,1.1c-0.3,0-0.5-0.4-1-0.9c0.7-0.1,1.1-0.2,1.4-0.2
			C102.1,200.4,103.5,200.4,105,200.4z"/>
		<path class="st0" d="M128.8,222.2c2,0,3.7,0,5.5,0c0.3,0.4,0.4,0.9-0.3,1c-1.5,0.1-3.1,0.1-4.6,0
			C129.3,223.2,129.1,222.7,128.8,222.2z"/>
		<path class="st0" d="M95.3,197.7c-2.1,0.7-6.9,0.7-8.4,0.1C88.1,197.2,93.1,197.1,95.3,197.7z"/>
		<path class="st0" d="M127.5,221.9c0,0.3,0,0.7,0,1.1c-4.4,0.4-4.5,0.4-4.9-0.9C124.2,222.1,125.8,222,127.5,221.9z"/>
		<path class="st0" d="M104.3,203.6c-0.8,1.2-0.8,1.2-5,0.9c0-0.4,0-0.9,0-1.3C101,203.4,102.6,203.5,104.3,203.6z"/>
		<path class="st0" d="M118,194.5c-1.2,1.2-4.1,1.1-6.9,0.2C112.4,194.2,115.3,194.1,118,194.5z"/>
		<path class="st0" d="M86.8,200.8c1.5-0.6,6.4-0.6,8.1-0.1C93.7,201.5,88.4,201.6,86.8,200.8z"/>
		<path class="st0" d="M99.3,209.8c3.1,0,5.7,0,8.5,0C106.6,210.8,101.5,210.8,99.3,209.8z"/>
		<path class="st0" d="M94.9,204.1c-2.6,0.5-6.7,0.4-8-0.2C88.4,203.3,93.3,203.3,94.9,204.1z"/>
		<path class="st0" d="M86.9,194.5c2.6-0.1,5.2-0.4,8.1-0.1C93.4,195.3,88.6,195.4,86.9,194.5z"/>
		<path class="st0" d="M134.3,216.5c-1.9,0-3.4,0-5,0c-0.1-0.1-0.1-0.2-0.2-0.3c0.3-0.2,0.6-0.6,0.9-0.7
			C132.1,215.2,133.5,215.5,134.3,216.5z"/>
		<path class="st0" d="M94.6,219.2c-1.6,0.9-6.4,0.8-8.2-0.1C89.4,219.1,92,218.5,94.6,219.2z"/>
		<path class="st0" d="M85.3,195c-1.4,0.2-2.7,0.4-4.1,0.5c-0.3,0-0.6-0.6-0.9-0.9c0.3-0.1,0.7-0.2,1-0.2c1.3,0,2.6,0,3.9,0
			C85.3,194.5,85.3,194.7,85.3,195z"/>
		<path class="st0" d="M80.3,222.1c1.6,0,3.2,0,4.6,0c0.3,0.9-0.2,1.2-0.9,1.1C82.8,222.9,81.1,224.1,80.3,222.1z"/>
		<path class="st0" d="M80.7,215.5c1.4,0,2.8,0,4.2,0c-0.3,1.1-0.4,1.2-2.4,1.1C81.8,216.6,80.6,217.1,80.7,215.5z"/>
		<path class="st0" d="M104.6,207c-1.8,0.5-3.6,0.7-5.4,0.1C101,206.3,102.8,206.7,104.6,207z"/>
		<path class="st0" d="M80.5,203.1c1.7,0.2,3,0.4,4.4,0.6c-1.2,1.1-2.6,0.7-3.9,0.6C80.8,204.2,80.7,203.7,80.5,203.1z"/>
		<path class="st0" d="M112,213c1.3,0,2.6,0,4,0c0.3,0.7,0,1.1-0.7,1c-1.1-0.1-2.2-0.4-3.3-0.6C112,213.2,112,213.1,112,213z"/>
		<path class="st0" d="M126,219c1.7,0,3.4,0,5.1,0C130.1,219.9,128.2,220,126,219z"/>
		<path class="st0" d="M75.2,203.1c0.8,0.1,1.4,0.1,2,0.2c0.1,1.2-0.6,1.4-1.5,1.3C74.9,204.5,75,204,75.2,203.1z"/>
		<path class="st0" d="M124,207c-1.5,0.6-3.1,0.7-4.6,0.1C120.9,206.3,122.5,206.5,124,207z"/>
		<path class="st0" d="M80.4,197.5c1.5,0,3,0,4.5,0c-1.5,1.1-3,0.5-4.5,0.6C80.4,197.9,80.4,197.7,80.4,197.5z"/>
		<path class="st0" d="M79.9,200.5c1.8-0.1,3.4-0.3,5.3,0.2C83.3,201.6,81.6,201.5,79.9,200.5z"/>
		<path class="st0" d="M70.3,216.8c0-0.4,0-0.8-0.1-1.2c0.6,0,1.2-0.1,1.8-0.1c0,0.5,0,0.9,0,1.4C71.4,216.8,70.9,216.8,70.3,216.8z
			"/>
		<path class="st0" d="M85.2,219.2c-1.8,0.7-2.6,0.8-4.5,0.3C81.6,218.7,82.6,218.6,85.2,219.2z"/>
		<path class="st0" d="M84.9,209.9c-1.4,0.7-2.8,0.8-4.7,0.2C82.1,209.3,83.5,209.7,84.9,209.9z"/>
		<path class="st0" d="M80.7,212.9c1.3,0,2.5,0,3.8,0c-1.2,1-2.5,0.8-3.8,0.5C80.7,213.2,80.7,213.1,80.7,212.9z"/>
		<path class="st0" d="M77.2,201c-0.4,0.1-0.7,0.2-0.9,0.2c-0.1,0-0.2-0.2-0.3-0.4c0.2-0.1,0.4-0.2,0.7-0.3
			C76.7,200.5,76.9,200.7,77.2,201z"/>
		<path class="st0" d="M103.9,134.2c-0.1,0.8-0.1,1.4-0.1,2c-0.8,0-1.4,0.1-2.1,0.1c-7.2,0-14.5,0-21.7,0c-0.5,0-1,0-1.5,0
			c-1.1-0.1-1.5-0.7-1.2-2.1C86,134.1,94.8,134.2,103.9,134.2z"/>
		<path class="st0" d="M45.8,140.5c0.3-0.9,0.5-1.4,0.8-2c8.7,0,17.2,0,25.7,0c0.5,2,0.5,2.1-1.4,2.1c-5.3,0-10.5,0-15.8,0
			c-2.3,0-4.7,0-7,0C47.4,140.6,46.7,140.5,45.8,140.5z"/>
		<path class="st0" d="M71.4,111.4c0,0.6,0,1.1,0,1.7c-8.4,0-16.8,0-25.2,0c0.1-1.9,0.1-1.9,1.5-1.9c7.7,0,15.4,0,23.1,0
			C70.9,111.2,71,111.3,71.4,111.4z"/>
		<path class="st0" d="M74.2,126.1c-9.2,0-18.5,0-27.7,0c-0.2-1.8-0.2-1.8,1.6-1.8c7.4,0,14.9,0,22.3,0c0.9,0,1.8,0,2.6,0
			C74.4,124.4,74.4,124.4,74.2,126.1z"/>
		<path class="st0" d="M115.1,126.1c-7.6,0-15.2,0-22.9,0c-0.1-0.3-0.2-0.5-0.2-0.8c0-0.3,0.1-0.6,0.1-0.9c0.3-0.1,0.4-0.2,0.6-0.2
			c6.9,0,13.9,0,20.8,0C114.7,124.3,115.5,124.5,115.1,126.1z"/>
		<path class="st0" d="M235.2,122.7c14.9,0,29.8,0,44.8,0c0.1,0.8,0.1,1.5,0.1,2.2c0,7.6,0,15.2,0,22.8c0,2.3-0.1,2.3-2.3,2.3
			c-13.5,0-27.1,0-40.6,0c-2.1,0-2.2-0.1-2.2-2c0-7.8,0-15.6,0-23.5C234.9,123.9,235.1,123.3,235.2,122.7z"/>
		<path class="st0" d="M177.2,96.2c0-2.8,0-6.4,0-9.3c0-0.6,0.5-1.1,1.1-1.1c2.5,0,5.3,0,7.5,0c0.4,0,0.8,0.3,0.9,0.6l3.7,4.6
			c0.3,0.4,0.3,1,0,1.4c-0.8,1-2.4,2.7-3.3,3.9c-0.4,0.5-1,0.8-1.7,0.8l-7.3,0C177.7,97.3,177.2,96.8,177.2,96.2z"/>
		<path class="st0" d="M183.2,135.4c2.4,0,3.7,1.3,3.7,3.7c0,2.1-1.5,3.3-4.1,3.3c-2,0-3.4-1.6-3.4-3.6
			C179.4,136.6,180.8,135.4,183.2,135.4z"/>
		<path class="st0" d="M257.5,160.1c-1.4,0-3-1.4-3-2.9c0-2.2,1.2-3.4,3.3-3.3c1.7,0,3,1.3,3,2.9
			C260.8,158.6,259.6,160.1,257.5,160.1z"/>
		<path class="st0" d="M187.8,208.9c0,1.5-1.4,2.8-3.1,2.9c-1.1,0.1-2.6-1.7-2.6-3c0-1.3,1.5-3,2.6-3
			C186.4,205.7,187.8,207.2,187.8,208.9z"/>
		<path class="st0" d="M185,182c1.6,0,2.5,0.8,2.5,2.3c0,1.5-1,2.4-2.5,2.4c-1.5,0-2.4-0.8-2.4-2.2C182.6,182.8,183.3,182,185,182z"
			/>
		<path class="st0" d="M87.8,91.3c2.2,0.1,2.5,0.4,2.5,2c0,1.7-0.9,2.5-2.7,2.6c-1.2,0.1-2.1-0.3-2.4-1.4c-0.2-0.9-0.4-2,0.6-2.6
			C86.4,91.6,87.1,91.5,87.8,91.3z"/>
		<path class="st0" d="M48.6,209.2c-1.7-0.1-2.3-0.8-2.3-2.7c0.1-1.5,1.2-2.6,2.6-2.5c1.2,0.1,2.6,1.7,2.6,2.9
			C51.5,208.5,50.6,209.2,48.6,209.2z"/>
		<path class="st0" d="M8.7,183.8c-1.5,0-2.5-0.7-2.5-2c-0.1-1.5,0.9-2.4,2.8-2.4c1.8,0,2.6,0.6,2.7,2
			C11.7,182.9,10.7,183.7,8.7,183.8z"/>
		<path class="st0" d="M87.7,161.7c-1.5,0-2.7-1.1-2.7-2.4c0-1.2,1.6-2.9,2.8-2.8c1.5,0.1,2.5,1.2,2.5,2.9
			C90.2,161.2,89.6,161.7,87.7,161.7z"/>
	</g>
</g>
</svg>
